<svg width="83" height="72" viewBox="0 0 83 72" fill="none" xmlns="http://www.w3.org/2000/svg">
<path d="M41.0404 11.3226L38.9788 13.3078C39.2459 13.585 39.5661 13.8054 39.9203 13.9559C40.2746 14.1065 40.6555 14.1841 41.0404 14.1841C41.4252 14.1841 41.8062 14.1065 42.1604 13.9559C42.5146 13.8054 42.8348 13.585 43.1019 13.3078L41.0404 11.3226ZM21.9556 53.0121C21.3684 52.5292 20.6133 52.2993 19.8565 52.373C19.0998 52.4468 18.4033 52.8181 17.9203 53.4054C17.4374 53.9926 17.2074 54.7477 17.2812 55.5045C17.3549 56.2612 17.7263 56.9577 18.3135 57.4407L21.9556 53.0121ZM4.16894 41.5246C4.34942 41.8545 4.59312 42.1456 4.88611 42.3813C5.1791 42.617 5.51564 42.7927 5.87653 42.8984C6.23742 43.004 6.61558 43.0375 6.98943 42.997C7.36327 42.9565 7.72548 42.8428 8.05536 42.6623C8.38525 42.4818 8.67636 42.2381 8.91207 41.9451C9.14777 41.6521 9.32347 41.3156 9.42911 40.9547C9.53475 40.5938 9.56828 40.2156 9.52777 39.8418C9.48727 39.468 9.37353 39.1057 9.19304 38.7759L4.16894 41.5246ZM5.72656 25.2077C5.72656 16.9996 10.3651 10.1124 16.6987 7.21475C22.8528 4.40109 31.122 5.14555 38.9788 13.3078L43.1019 9.34123C33.7867 -0.344334 22.9597 -1.94396 14.3164 2.00738C5.864 5.87473 0 14.854 0 25.2077H5.72656ZM27.6669 64.7707C29.6254 66.3131 31.7252 67.9547 33.8516 69.1993C35.9781 70.4439 38.4061 71.4517 41.0404 71.4517V65.7252C39.8569 65.7252 38.4672 65.267 36.7416 64.2553C35.0122 63.2475 33.2217 61.8578 31.2136 60.2734L27.6669 64.7707ZM54.4138 64.7707C59.8578 60.4758 66.8214 55.5586 72.2807 49.4082C77.8431 43.1471 82.0807 35.3857 82.0807 25.2077H76.3542C76.3542 33.599 72.9182 40.0624 68.001 45.6058C62.9807 51.256 56.6548 55.7113 50.8671 60.2734L54.4138 64.7707ZM82.0807 25.2077C82.0807 14.854 76.2205 5.87473 67.7643 2.00738C59.121 -1.94396 48.3016 -0.344334 38.9788 9.33741L43.1019 13.3078C50.9588 5.14937 59.2279 4.40109 65.3821 7.21475C71.7156 10.1124 76.3542 16.9958 76.3542 25.2077H82.0807ZM50.8671 60.2734C48.859 61.8578 47.0685 63.2475 45.3391 64.2553C43.6097 65.2632 42.2239 65.7252 41.0404 65.7252V71.4517C43.6746 71.4517 46.1026 70.44 48.2291 69.1993C50.3594 67.9547 52.4553 66.3131 54.4138 64.7707L50.8671 60.2734ZM31.2136 60.2734C28.1747 57.8797 25.0862 55.5891 21.9556 53.0121L18.3135 57.4407C21.4822 60.0482 24.8342 62.5374 27.6669 64.7707L31.2136 60.2734ZM9.19304 38.7797C6.89296 34.6277 5.69924 29.9541 5.72656 25.2077H0C0 31.4611 1.60344 36.8326 4.16894 41.5246L9.19304 38.7797Z" fill="#F6F4F0"/>
</svg>
