<svg width="124" height="28" viewBox="0 0 124 28" fill="none" xmlns="http://www.w3.org/2000/svg">
<path d="M9.34298 16.8524C8.64219 16.8858 7.94141 16.8191 7.27399 16.5187C7.0404 16.452 6.94028 16.5187 6.94028 16.7857C6.97365 16.9192 6.97365 17.086 6.97365 17.2529C7.07377 18.0538 7.20725 18.8881 7.27399 19.689C7.34073 20.6901 7.54096 21.6912 7.54096 22.6923C7.54096 23.6267 7.17388 24.3609 6.47309 24.9282C5.10489 26.0628 3.2695 25.5956 2.40186 24.3942C2.06816 23.927 1.86793 23.3931 1.80119 22.7924C1.70108 21.5577 1.56759 20.323 1.43411 19.0549C1.26726 17.6533 1.06703 16.2184 0.93355 14.7835C0.833438 13.8157 0.800067 12.848 0.699955 11.8802C0.599843 10.8123 0.49973 9.74448 0.399618 8.67661C0.366247 8.54313 0.366247 8.44302 0.366247 8.30953C0.266135 7.14156 0.132652 6.00695 0.0325399 4.83898C-0.000830801 4.37179 0.0325399 3.87123 0.0659107 3.37066C0.132652 2.83673 0.166023 2.3028 0.366247 1.76887C0.666584 1.06808 1.13377 0.53415 1.86793 0.267184C2.7022 0.000217397 3.40298 0.200443 4.03703 0.701004C4.27062 0.901228 4.50422 1.20156 4.73781 1.43516C4.90467 1.60201 5.00478 1.63538 5.20501 1.53527C5.57208 1.33505 5.93916 1.13482 6.33961 0.9346C7.34073 0.50078 8.37523 0.300554 9.44309 0.267184C11.0449 0.200443 12.6133 0.434037 14.115 1.03471C16.2841 1.90235 17.5522 3.47078 17.986 5.77336C18.4198 7.97583 17.986 10.0114 16.8848 11.9469C15.9838 13.5154 14.7824 14.7835 13.2474 15.7178C12.046 16.452 10.7779 16.9192 9.34298 16.8524ZM6.03927 6.67437C6.03927 7.07482 6.07264 7.44189 6.10602 7.80897C6.20613 8.84347 6.30624 9.87796 6.40635 10.9125C6.43972 11.6466 6.37298 11.68 7.10714 12.1472C7.34073 12.2807 7.54096 12.4141 7.77455 12.5142C8.175 12.6811 8.64219 12.8146 9.10938 12.7478C10.0104 12.581 10.8447 12.2473 11.5454 11.6132C12.2462 11.0126 12.7802 10.3451 13.1806 9.54425C13.7479 8.30953 13.9481 7.04144 13.5811 5.70662C13.4142 5.00583 12.9804 4.53864 12.2796 4.27167C11.6789 4.07145 11.0449 4.00471 10.4108 3.87123C9.5432 3.73774 8.70893 3.9046 7.90804 4.17156C7.44085 4.30504 7.00703 4.57201 6.67332 4.90572C6.20613 5.30617 5.90579 5.80673 6.0059 6.44077C6.03927 6.54088 6.03927 6.641 6.03927 6.67437ZM37.0881 7.97583C37.0548 9.64436 36.4541 11.0793 35.4863 12.3808C34.5853 13.5154 33.4507 14.3496 32.1493 14.9169C31.6821 15.1172 31.6821 15.1172 32.0825 15.4842C32.7166 16.0515 33.3506 16.6188 33.9847 17.1862C34.1849 17.353 34.4185 17.5532 34.5853 17.7535C35.7199 19.155 35.3195 21.5577 33.2505 22.2585C32.4496 22.5255 31.6153 22.4254 30.8812 21.9582C30.6476 21.8247 30.414 21.6578 30.2138 21.491C28.345 19.8558 26.4762 18.254 24.6075 16.6188C24.4406 16.4854 24.3405 16.5187 24.2738 16.719C24.2404 16.8524 24.207 16.9526 24.207 17.086C24.1069 17.9203 24.0402 18.7879 23.9734 19.6222C23.8733 20.7235 23.6064 21.7913 23.0057 22.7257C22.1714 24.0272 20.1692 24.2607 19.0346 22.9593C18.8343 22.7257 18.6341 22.4254 18.5006 22.125C18.2003 21.3241 18.0334 20.4899 18.1669 19.6222C18.2003 19.4554 18.2337 19.3219 18.2337 19.155C18.4005 17.6867 18.5006 16.2518 18.6675 14.7835C18.801 13.4486 19.0012 12.1138 19.1681 10.779C19.2682 9.74448 19.3015 8.64324 19.4017 7.60875C19.5351 6.57425 19.5351 5.53976 19.5685 4.4719C19.6352 3.60426 19.9022 2.73662 20.5696 2.0692C21.0368 1.60201 21.6041 1.30168 22.2715 1.33505C22.8055 1.40179 23.306 1.23493 23.7732 1.06808C25.1748 0.53415 26.6097 0.233814 28.078 0.300554C30.9479 0.434037 33.4174 1.46853 35.3529 3.671C36.0537 4.4719 36.6543 5.37291 36.8879 6.44077C36.988 6.9747 37.0214 7.47527 37.0881 7.97583ZM25.2749 6.07369C25.2415 7.47527 25.108 8.87684 24.9412 10.2784C24.9078 10.4453 25.0079 10.5454 25.2082 10.5787C26.0091 10.6455 26.8433 10.6455 27.6776 10.5454C28.4451 10.4453 29.246 10.3118 29.9802 10.0114C31.1148 9.51088 31.9491 8.74335 32.3161 7.50864C32.4162 7.24167 32.3829 7.04144 32.3161 6.77448C32.1493 6.14043 31.7155 5.67324 31.1815 5.2728C29.5797 4.07145 27.7777 3.9046 25.8756 4.2383C25.2749 4.33842 25.2749 4.2383 25.2749 5.00583C25.3083 5.37291 25.2749 5.73999 25.2749 6.07369ZM36.6217 23.2596C36.7552 21.9915 36.8553 20.6901 36.9888 19.422C37.0556 18.7212 37.1223 18.0204 37.189 17.3196C37.2892 16.3853 37.4226 15.4509 37.5227 14.5165C37.6229 13.7823 37.6896 13.0482 37.7897 12.3474C37.8565 11.6466 37.9899 10.9458 38.0567 10.245C38.1568 9.61099 38.2235 8.97695 38.2903 8.34291C38.357 7.60875 38.4238 6.87459 38.5239 6.17381C38.624 5.33954 38.7908 4.53864 39.0912 3.77111C39.3915 2.93684 39.9588 2.36954 40.7931 2.10257C41.6941 1.80224 42.6285 1.56864 43.5629 1.5019C43.663 1.5019 43.7631 1.5019 43.8298 1.5019C45.3982 1.23493 46.8666 1.66875 48.3349 2.16932C48.7019 2.3028 49.0023 2.5364 49.2693 2.83673C49.8366 3.50415 49.8366 4.4719 49.336 5.13931C49.069 5.47302 48.7353 5.73999 48.3015 5.90684C48.0345 6.00695 47.7342 6.07369 47.4339 6.14043C46.4995 6.34066 45.5651 6.50751 44.6307 6.50751C44.3304 6.50751 44.2303 6.57425 44.1969 6.94133C44.0634 8.30953 43.9299 9.67773 43.7631 11.0459C43.7297 11.413 43.663 11.7467 43.6296 12.1138C43.6296 12.314 43.7297 12.4141 43.9299 12.3808C44.1635 12.3474 44.3971 12.2807 44.6307 12.2473C45.5985 12.0804 46.4661 12.314 47.1335 13.0482C48.3349 14.3163 47.8677 16.2184 46.5996 16.8858C46.099 17.1528 45.5651 17.353 44.9978 17.3196C44.5306 17.2863 44.03 17.2529 43.5629 17.2195C43.4627 17.2195 43.3626 17.1862 43.2625 17.1862C43.129 17.1862 42.9622 17.3196 42.9622 17.4531C42.8287 18.4876 42.6618 19.5221 42.6952 20.5566C42.6952 20.6901 42.762 20.7902 42.8954 20.7902C43.0957 20.7902 43.2959 20.7902 43.4627 20.7568C44.297 20.59 45.1646 20.6567 46.0323 20.6233C46.4661 20.6233 46.8666 20.7235 47.267 20.8569C48.5017 21.3241 49.0357 22.2585 48.7687 23.5266C48.6352 24.0939 48.2348 24.5277 47.7676 24.8281C47.5006 24.9949 47.1669 25.1284 46.8666 25.2285C46.1991 25.4287 45.4984 25.5956 44.7976 25.5956C44.03 25.5622 43.2625 25.6957 42.495 25.7958C42.1279 25.8625 41.7608 25.996 41.3938 26.2296C41.0267 26.4632 40.5929 26.6301 40.159 26.7636C38.5906 27.1974 36.6217 25.8625 36.6551 24.0939C36.6551 23.8269 36.6551 23.5266 36.6551 23.2596C36.6217 23.2596 36.6217 23.2596 36.6217 23.2596ZM49.5894 12.8813C49.5894 11.5465 49.6228 10.2784 49.556 9.01032C49.5227 8.07594 49.556 7.17493 49.6228 6.24055C49.6895 5.47302 49.7563 4.67212 49.9898 3.9046C50.0566 3.57089 50.1901 3.27055 50.3569 2.97022C50.724 2.40291 51.2579 2.0692 51.9587 2.0692C52.1256 2.0692 52.2591 2.10257 52.4259 2.0692C53.3269 2.00246 53.961 2.43628 54.4282 3.13707C54.7952 3.671 55.0956 4.20493 55.4293 4.77223C56.7975 7.04144 58.0989 9.3774 59.367 11.7133C59.8342 12.5142 60.268 13.2818 60.7352 14.0827C60.7686 14.1828 60.9021 14.1828 60.9355 14.0827C61.4026 13.3151 61.8365 12.5476 62.3037 11.8135C63.7386 9.44414 65.4739 7.30841 67.4761 5.40628C67.7097 5.23942 67.8766 5.0392 68.1102 4.87235C68.4105 4.60538 68.6441 4.27167 68.8443 3.93797C69.0445 3.53752 69.2781 3.20381 69.5117 2.83673C69.712 2.46965 70.079 2.20269 70.4127 1.96909C71.6808 1.16819 73.1825 1.7355 73.6163 3.1037C73.8166 3.671 73.95 4.27167 73.7832 4.90572C73.7164 5.10594 73.6831 5.30617 73.6831 5.53976C73.6831 6.44077 73.4829 7.27504 73.2159 8.14268C72.682 9.77785 72.2481 11.4798 71.9144 13.1817C71.7809 13.9158 71.6475 14.6833 71.6475 15.4509C71.6475 16.0182 71.6141 16.6188 71.6141 17.1862C71.5807 18.3875 71.7476 19.5555 71.9144 20.7568C72.0813 22.0583 71.3138 23.293 70.079 23.7936C68.9111 24.2274 67.376 23.7936 66.7086 22.6256C66.5417 22.3586 66.4083 22.0249 66.3081 21.7246C66.1413 21.0238 66.0412 20.2896 65.9744 19.5555C65.8743 18.5877 65.7742 17.62 65.8076 16.6188C65.8409 15.4842 65.9411 14.383 66.1079 13.2484C66.2414 12.2473 66.4083 11.2795 66.6752 10.2784C66.6752 10.245 66.6418 10.1783 66.6418 10.1116C66.5751 10.1449 66.5417 10.1783 66.5084 10.2117C66.1747 10.6121 65.8076 11.0459 65.4739 11.4798C64.5395 12.7812 63.6719 14.0827 62.9377 15.5176C62.6707 15.9848 62.4705 16.5187 62.2703 17.0193C62.2035 17.1528 62.1702 17.3196 62.0701 17.4197C61.703 18.0538 61.3025 18.1873 60.7019 18.0538C59.8676 17.8869 59.1668 17.5532 58.5661 16.8858C57.9321 16.1183 57.3982 15.3174 56.931 14.4498C56.5305 13.7156 56.0967 12.9814 55.6962 12.2139C55.6295 12.1138 55.5628 12.0137 55.496 11.9136C55.4626 11.9136 55.4293 11.8802 55.3959 11.8802C55.3959 11.8802 55.3625 11.9136 55.3625 11.9469C55.3292 12.0137 55.3292 12.0471 55.3292 12.1138C55.3292 13.0816 55.2624 14.0159 55.3625 14.9503C55.5628 17.0193 55.4293 19.0549 55.496 21.0905C55.5294 21.7246 55.3959 22.3252 55.1289 22.8925C54.7952 23.6601 54.2279 24.2274 53.3937 24.4943C52.5594 24.7613 51.7919 24.5945 51.1245 24.0605C50.3236 23.4599 49.8897 22.5922 49.823 21.5577C49.7563 20.957 49.7896 20.323 49.7563 19.7223C49.6895 17.4197 49.6228 15.1505 49.5894 12.8813ZM73.6231 14.5499C73.6231 13.9158 73.6231 13.2818 73.6231 12.6477C73.6899 11.1127 73.9902 9.67773 74.6576 8.30953C75.3918 6.70774 76.226 5.20605 77.2605 3.80448C77.7611 3.13707 78.3284 2.5364 78.9624 2.00246C79.8968 1.20156 80.9647 0.734374 82.166 0.567521C82.9669 0.467408 83.7678 0.53415 84.5353 0.734374C85.6366 1.03471 86.4708 1.7355 87.1716 2.60314C88.2395 3.83785 88.8402 5.30617 89.2406 6.84122C89.4742 7.7756 89.6411 8.70998 89.6077 9.64436C89.6077 10.8457 89.6744 12.0471 89.5743 13.215C89.4742 14.5832 89.3741 15.9514 89.1405 17.3196C88.9403 18.3541 88.8068 19.422 88.6733 20.4899C88.5065 21.9915 88.1394 23.4265 87.5721 24.8281C87.3385 25.3954 86.9714 25.8625 86.3707 26.1295C85.8034 26.3965 85.3029 26.3297 84.8023 26.0294C84.3017 25.6957 83.968 25.2285 83.9347 24.5945C83.8679 23.6601 83.8679 22.7591 84.0014 21.8581C84.1349 21.1239 84.2684 20.4231 84.4352 19.689C84.6355 18.9882 84.6021 18.9882 83.8346 18.9882C82.6666 18.9548 81.4652 18.9548 80.2639 18.9214C80.1304 18.9214 80.0303 18.9214 79.8968 18.9548C79.7633 18.9882 79.6966 19.0883 79.73 19.2218C79.8634 19.9559 79.9636 20.7235 80.2639 21.4242C80.5309 22.0583 80.6643 22.7257 80.631 23.3931C80.5309 24.5277 79.9969 25.362 78.9291 25.7958C78.3284 26.0628 77.7277 26.0294 77.127 25.8625C76.3261 25.5956 75.6921 25.0616 75.2583 24.2941C74.9579 23.7602 74.7243 23.1595 74.5575 22.5255C74.2905 21.5577 74.1237 20.5566 73.9568 19.5888C73.6899 17.9203 73.5897 16.2518 73.6231 14.5499ZM85.7701 11.0459C85.8034 9.87796 85.7367 8.81009 85.5365 7.74223C85.403 6.87459 85.136 6.04032 84.502 5.33954C83.7344 4.53864 83.2673 4.43853 82.433 5.30617C81.5653 6.24055 80.8646 7.34178 80.3974 8.54313C79.73 10.3451 79.2961 12.2139 79.3295 14.1828C79.3295 14.7501 79.3295 15.3174 79.3629 15.9181C79.3629 16.1517 79.4296 16.2184 79.6966 16.2518C80.3306 16.2851 80.9647 16.3519 81.5987 16.3519C82.5665 16.3853 83.5008 16.4186 84.4686 16.4186C84.6021 16.4186 84.7689 16.452 84.9024 16.4186C85.0025 16.4186 85.136 16.2851 85.1694 16.2184C85.2695 15.6845 85.3029 15.1172 85.4364 14.5832C85.7033 13.3819 85.8034 12.1805 85.7701 11.0459ZM89.7099 14.4164C89.7099 13.6489 89.6432 12.8813 89.7099 12.1138C89.7766 11.0459 89.8434 9.97807 90.0102 8.91021C90.077 8.34291 90.1437 7.7756 90.2105 7.2083C90.3439 6.30729 90.4774 5.37291 90.6109 4.4719C90.711 3.97134 90.8779 3.47078 91.1782 3.03696C91.9457 1.86898 92.9469 1.56864 94.1816 1.76887C95.2494 1.96909 96.1838 3.00359 96.2839 4.17156C96.3173 4.70549 96.3173 5.2728 96.2506 5.80673C96.1171 6.77448 95.9169 7.74223 95.7834 8.70998C95.6833 9.21054 95.6165 9.7111 95.6165 10.245C95.483 12.1805 95.2828 14.1494 95.4163 16.1183C95.4497 16.8858 95.5498 17.6867 95.7166 18.4542C95.8835 19.0549 96.1505 19.5888 96.5175 20.0894C96.7178 20.3564 96.9847 20.4231 97.2517 20.2896C97.552 20.0894 97.8857 19.8892 98.1527 19.6556C98.9536 18.9214 99.5876 18.0538 100.155 17.1528C100.756 16.185 101.29 15.1839 101.69 14.1494C102.124 13.1149 102.524 12.0471 102.991 11.0126C103.525 9.81122 103.792 8.54313 103.859 7.2083C103.892 6.4074 103.993 5.6065 104.193 4.83898C104.293 4.53864 104.426 4.20493 104.593 3.93797C105.027 3.17044 105.761 2.73662 106.629 2.73662C107.53 2.73662 108.297 3.13707 108.765 3.93797C108.998 4.27167 109.098 4.63875 109.165 5.0392C109.265 5.77336 109.299 6.50751 109.365 7.24167C109.599 8.91021 109.465 10.6121 109.465 12.2807C109.465 13.1817 109.399 14.116 109.365 15.0171C109.332 16.5187 109.332 18.0204 109.299 19.5221C109.265 20.3564 109.232 21.1573 109.165 21.9915C109.098 22.8258 108.731 23.5266 108.097 24.0605C107.129 24.8614 105.928 24.8948 104.894 24.194C104.226 23.7268 103.826 23.0928 103.626 22.3252C103.492 21.7579 103.459 21.1573 103.459 20.59C103.459 19.8892 103.459 19.1884 103.459 18.4876C103.459 18.4542 103.425 18.4209 103.392 18.4209C103.392 18.4209 103.359 18.4209 103.325 18.4542C103.325 18.4876 103.292 18.5544 103.258 18.5877C102.658 19.9559 101.957 21.224 101.023 22.392C100.355 23.2596 99.5543 24.0272 98.5865 24.5611C97.7856 24.9615 96.918 25.1951 96.017 25.1951C95.0158 25.1951 94.0481 24.8948 93.1471 24.3942C92.0792 23.7602 91.3117 22.8592 90.8111 21.7579C90.3106 20.6233 90.0102 19.4554 89.8434 18.254C89.6432 16.9526 89.6765 15.6845 89.7099 14.4164ZM113.676 14.7167C113.676 13.1483 113.676 11.5799 113.676 10.0448C113.643 8.70998 113.743 7.40852 114.043 6.10706C114.077 5.90684 113.976 5.77336 113.743 5.77336C112.842 5.77336 111.974 5.80673 111.073 5.80673C110.806 5.80673 110.539 5.77336 110.272 5.63987C109.638 5.33954 109.338 4.87235 109.471 4.17156C109.471 4.00471 109.571 3.80448 109.672 3.671C109.939 3.30392 110.306 3.13707 110.739 3.07033C110.873 3.03696 111.006 3.03696 111.107 3.03696C112.808 2.97022 114.477 2.90347 116.146 2.80336C116.546 2.80336 116.946 2.73662 117.347 2.73662C118.615 2.66988 119.916 2.63651 121.185 2.80336C121.518 2.8701 121.852 2.83673 122.186 2.8701C122.419 2.90347 122.619 2.93684 122.82 3.00359C123.287 3.20381 123.554 3.57089 123.587 4.07145C123.621 4.50527 123.354 4.80561 123.02 5.07257C122.686 5.30617 122.319 5.40628 121.885 5.43965C121.051 5.47302 120.217 5.67324 119.349 5.6065C119.116 5.6065 119.049 5.73999 119.082 6.00695C119.249 7.2083 119.382 8.40965 119.382 9.64436C119.382 13.3485 119.382 17.0527 119.382 20.7568C119.382 21.3241 119.349 21.8914 119.082 22.4254C118.548 23.4599 117.747 23.9938 116.579 24.0272C115.211 24.0605 114.11 23.1929 113.776 21.8581C113.676 21.5577 113.676 21.1906 113.676 20.8569C113.643 19.7557 113.643 18.6545 113.643 17.5532C113.643 16.6188 113.643 15.6511 113.643 14.7167C113.643 14.7167 113.643 14.7167 113.676 14.7167Z" fill="#F6F4F0"/>
</svg>
