<svg width="28" height="28" viewBox="0 0 28 28" fill="none" xmlns="http://www.w3.org/2000/svg">
<path d="M11.4 1.3999V11.1999H14.2V8.3999C14.2 6.2719 16.23 4.1999 18.4 4.1999V5.4039C19.17 4.6759 20.164 4.1999 21.2 4.1999V8.3999H22.6C24.14 8.3999 25.4 9.6599 25.4 11.1999C25.4 12.7399 24.14 13.9999 22.6 13.9999H21.2V22.3999C21.2 23.1699 20.57 23.7999 19.8 23.7999C19.03 23.7999 18.4 23.1699 18.4 22.3999V19.3479C17.966 19.5019 17.49 19.5999 17 19.5999V22.3999C17 23.1699 16.37 23.7999 15.6 23.7999C14.83 23.7999 14.2 23.1699 14.2 22.3999V19.5999H11.4V22.3999C11.4 23.1699 10.77 23.7999 10 23.7999C9.23 23.7999 8.6 23.1699 8.6 22.3999V19.5999C8.11 19.5999 7.634 19.5019 7.2 19.3479V22.3999C7.2 23.1699 6.57 23.7999 5.8 23.7999C5.03 23.7999 4.4 23.1699 4.4 22.3999V16.7999H3V15.3999C3 13.0759 4.876 11.1999 7.2 11.1999H10V1.3999H11.4ZM18.4 11.1999C19.17 11.1999 19.8 10.5699 19.8 9.7999C19.8 9.0299 19.17 8.3999 18.4 8.3999C17.63 8.3999 17 9.0299 17 9.7999C17 10.5699 17.63 11.1999 18.4 11.1999Z" fill="#F6F4F0"/>
</svg>
