<svg width="41" height="41" viewBox="0 0 41 41" fill="none" xmlns="http://www.w3.org/2000/svg">
<path d="M20.5002 8.19998C19.4128 8.19998 18.37 8.63194 17.6011 9.40084C16.8322 10.1697 16.4002 11.2126 16.4002 12.3C16.4002 13.3874 16.8322 14.4302 17.6011 15.1991C18.37 15.968 19.4128 16.4 20.5002 16.4C21.5876 16.4 22.6304 15.968 23.3993 15.1991C24.1682 14.4302 24.6002 13.3874 24.6002 12.3C24.6002 11.2126 24.1682 10.1697 23.3993 9.40084C22.6304 8.63194 21.5876 8.19998 20.5002 8.19998ZM13.3252 29.725C13.0533 29.725 12.7926 29.833 12.6004 30.0252C12.4082 30.2174 12.3002 30.4781 12.3002 30.75C12.3002 31.0218 12.4082 31.2825 12.6004 31.4748C12.7926 31.667 13.0533 31.775 13.3252 31.775H27.6752C27.947 31.775 28.2078 31.667 28.4 31.4748C28.5922 31.2825 28.7002 31.0218 28.7002 30.75C28.7002 30.4781 28.5922 30.2174 28.4 30.0252C28.2078 29.833 27.947 29.725 27.6752 29.725H13.3252ZM8.2002 8.19998C8.2002 7.11259 8.63216 6.06974 9.40106 5.30084C10.17 4.53194 11.2128 4.09998 12.3002 4.09998H28.7002C29.7876 4.09998 30.8304 4.53194 31.5993 5.30084C32.3682 6.06974 32.8002 7.11259 32.8002 8.19998V32.8C32.8002 33.8874 32.3682 34.9302 31.5993 35.6991C30.8304 36.468 29.7876 36.9 28.7002 36.9H12.3002C11.2128 36.9 10.17 36.468 9.40106 35.6991C8.63216 34.9302 8.2002 33.8874 8.2002 32.8V8.19998ZM28.7002 6.14998H12.3002C11.7565 6.14998 11.2351 6.36596 10.8506 6.75041C10.4662 7.13486 10.2502 7.65628 10.2502 8.19998V24.6H14.3502V20.5C14.3502 19.9563 14.5662 19.4349 14.9506 19.0504C15.3351 18.666 15.8565 18.45 16.4002 18.45H24.6002C25.1439 18.45 25.6653 18.666 26.0498 19.0504C26.4342 19.4349 26.6502 19.9563 26.6502 20.5V24.6H30.7502V8.19998C30.7502 7.65628 30.5342 7.13486 30.1498 6.75041C29.7653 6.36596 29.2439 6.14998 28.7002 6.14998ZM10.2502 26.65V32.8C10.2502 33.3437 10.4662 33.8651 10.8506 34.2495C11.2351 34.634 11.7565 34.85 12.3002 34.85H28.7002C29.2439 34.85 29.7653 34.634 30.1498 34.2495C30.5342 33.8651 30.7502 33.3437 30.7502 32.8V26.65H10.2502Z" fill="#4DA1A9"/>
</svg>
