<svg width="17" height="17" viewBox="0 0 17 17" fill="none" xmlns="http://www.w3.org/2000/svg">
<path d="M8.10736 11.6714L5.30355 13.3604C5.17969 13.4392 5.05019 13.473 4.91507 13.4617C4.77995 13.4505 4.66171 13.4054 4.56037 13.3266C4.45903 13.2478 4.38021 13.1494 4.3239 13.0314C4.2676 12.9134 4.25634 12.7809 4.29012 12.6341L5.0333 9.44182L2.55041 7.29674C2.43781 7.19539 2.36754 7.07986 2.33962 6.95014C2.31169 6.82043 2.32002 6.69386 2.36461 6.57045C2.40921 6.44704 2.47677 6.34569 2.5673 6.26642C2.65783 6.18715 2.7817 6.13648 2.93889 6.11441L6.21563 5.82727L7.48241 2.82078C7.53871 2.68565 7.62609 2.58431 7.74455 2.51675C7.86301 2.44919 7.98395 2.41541 8.10736 2.41541C8.23077 2.41541 8.35171 2.44919 8.47016 2.51675C8.58862 2.58431 8.676 2.68565 8.7323 2.82078L9.99908 5.82727L13.2758 6.11441C13.4335 6.13693 13.5573 6.1876 13.6474 6.26642C13.7375 6.34524 13.8051 6.44659 13.8501 6.57045C13.8951 6.69431 13.9037 6.8211 13.8758 6.95082C13.8478 7.08054 13.7774 7.19584 13.6643 7.29674L11.1814 9.44182L11.9246 12.6341C11.9584 12.7805 11.9471 12.9129 11.8908 13.0314C11.8345 13.1498 11.7557 13.2482 11.6543 13.3266C11.553 13.405 11.4348 13.45 11.2996 13.4617C11.1645 13.4734 11.035 13.4397 10.9112 13.3604L8.10736 11.6714Z" fill="black"/>
</svg>
