<svg width="64" height="64" viewBox="0 0 64 64" fill="none" xmlns="http://www.w3.org/2000/svg">
<path d="M31.8786 14.6111L30.4441 15.9925C30.63 16.1853 30.8528 16.3387 31.0993 16.4434C31.3457 16.5482 31.6108 16.6022 31.8786 16.6022C32.1464 16.6022 32.4115 16.5482 32.658 16.4434C32.9045 16.3387 33.1273 16.1853 33.3132 15.9925L31.8786 14.6111ZM18.5986 43.6206C18.1899 43.2845 17.6645 43.1245 17.1379 43.1758C16.6113 43.2272 16.1267 43.4856 15.7906 43.8942C15.4545 44.3029 15.2946 44.8283 15.3459 45.3549C15.3972 45.8815 15.6556 46.3661 16.0642 46.7022L18.5986 43.6206ZM6.22174 35.627C6.34733 35.8566 6.51691 36.0591 6.72078 36.2232C6.92466 36.3872 7.15884 36.5094 7.40997 36.5829C7.66109 36.6565 7.92423 36.6798 8.18437 36.6516C8.44451 36.6234 8.69655 36.5443 8.9261 36.4187C9.15565 36.2931 9.35822 36.1235 9.52224 35.9196C9.68625 35.7158 9.80851 35.4816 9.88202 35.2305C9.95553 34.9793 9.97886 34.7162 9.95068 34.456C9.92249 34.1959 9.84334 33.9439 9.71775 33.7143L6.22174 35.627ZM7.30561 24.2729C7.30561 18.5613 10.5333 13.7689 14.9405 11.7526C19.2229 9.79473 24.9769 10.3128 30.4441 15.9925L33.3132 13.2323C26.8312 6.49264 19.2972 5.37954 13.2828 8.12907C7.40125 10.8202 3.3208 17.0684 3.3208 24.2729H7.30561ZM22.5728 51.8028C23.9356 52.876 25.3967 54.0183 26.8764 54.8844C28.3561 55.7504 30.0456 56.4517 31.8786 56.4517V52.4669C31.0551 52.4669 30.0881 52.1481 28.8874 51.4441C27.6839 50.7428 26.438 49.7758 25.0407 48.6734L22.5728 51.8028ZM41.1845 51.8028C44.9727 48.8141 49.8183 45.3925 53.6171 41.1128C57.4877 36.7561 60.4365 31.3553 60.4365 24.2729H56.4516C56.4516 30.112 54.0607 34.6096 50.6391 38.4669C47.1458 42.3986 42.7439 45.4988 38.7166 48.6734L41.1845 51.8028ZM60.4365 24.2729C60.4365 17.0684 56.3587 10.8202 50.4744 8.12907C44.46 5.37954 36.9314 6.49264 30.4441 13.2296L33.3132 15.9925C38.7803 10.3154 44.5344 9.79473 48.8167 11.7526C53.2239 13.7689 56.4516 18.5587 56.4516 24.2729H60.4365ZM38.7166 48.6734C37.3192 49.7758 36.0733 50.7428 34.8699 51.4441C33.6665 52.1455 32.7022 52.4669 31.8786 52.4669V56.4517C33.7116 56.4517 35.4012 55.7477 36.8809 54.8844C38.3632 54.0183 39.8217 52.876 41.1845 51.8028L38.7166 48.6734ZM25.0407 48.6734C22.9261 47.0077 20.7769 45.4138 18.5986 43.6206L16.0642 46.7022C18.2692 48.5166 20.6016 50.2487 22.5728 51.8028L25.0407 48.6734ZM9.71775 33.717C8.11725 30.8279 7.2866 27.5757 7.30561 24.2729H3.3208C3.3208 28.6244 4.43655 32.3621 6.22174 35.627L9.71775 33.717Z" fill="#6D94C5"/>
</svg>
